<?xml version="1.0" encoding="UTF-8"?>
<svg id="Capa_1" data-name="Capa 1" xmlns="http://www.w3.org/2000/svg" viewBox="0 0 445.16 439.68">
  <defs>
    <style>
      .cls-1 {
        fill: #7350f2;
      }
    </style>
  </defs>
  <path class="cls-1" d="M313.07,41.82v303.84h-40.6v-23.43h-.48c-9.44,13.59-29.74,28.58-64.67,28.58-47.22,0-103.39-37.48-103.39-111.05,0-65.6,46.74-111.51,108.58-111.51,23.13,0,49.56,9.37,57.59,17.81V14.08C252.91,5.2,236.93,0,223.65,0,151.97,0,0,150.87,0,219.84s151.97,219.84,223.65,219.84,221.51-148.73,221.51-219.84c0-45.95-66.5-128.2-132.09-178.02Z"/>
  <path class="cls-1" d="M147.36,240.22c0,44.52,31.17,74.04,69.4,74.04,27.39,0,44.86-14.53,53.35-27.17v-99.34c-6.61-7.5-24.55-21.08-53.35-21.08-38.23,0-69.4,29.52-69.4,73.56Z"/>
</svg>