<?xml version="1.0" encoding="UTF-8"?>
<svg id="Capa_1" data-name="Capa 1" xmlns="http://www.w3.org/2000/svg" viewBox="0 0 1920.56 579.87">
  <defs>
    <style>
      .cls-1 {
        fill: #7350f2;
      }
    </style>
  </defs>
  <path class="cls-1" d="M219.78,435.06v-30.56h-.62c-12.31,17.72-38.78,37.27-84.33,37.27C73.26,441.77,0,392.89,0,296.96c0-85.55,60.95-145.42,141.6-145.42,30.16,0,64.63,12.22,75.11,23.22V0h56.03v435.06h-52.95ZM216.71,229.13c-8.62-9.78-32.02-27.5-69.57-27.5-49.86,0-90.5,38.5-90.5,95.93s40.64,96.55,90.5,96.55c35.72,0,58.5-18.95,69.57-35.44v-129.55Z"/>
  <path class="cls-1" d="M393.35,136.26c-20.32,0-63.41-42.17-63.41-62.33s43.08-62.33,63.41-62.33,62.8,42.77,62.8,62.33-42.48,62.33-62.8,62.33ZM329.94,435.06V158.26h126.21v276.8h-126.21Z"/>
  <path class="cls-1" d="M637.73,441.77c-33.25,0-67.1-13.44-78.8-26.27v160.7h-47.4V158.26h44.93v30.56h.62c12.93-18.34,41.25-37.27,86.18-37.27,65.88,0,136.68,51.93,136.68,144.81,0,84.93-60.95,145.42-142.21,145.42ZM633.41,194.32c-36.31,0-62.18,18.33-74.48,36.04v140.54c11.08,12.22,36.33,29.94,74.48,29.94,54.8,0,98.5-42.15,98.5-103.27s-43.71-103.25-98.5-103.25Z"/>
  <path class="cls-1" d="M995.99,202.86h-88.65v147.25c0,31.78,16.62,42.77,46.18,42.77,9.85,0,18.47-1.21,25.25-3.67l-4.93,44c-7.4,3.67-19.7,4.88-30.79,4.88-50.48,0-91.11-28.71-91.11-82.49v-152.75h-54.8v-44.61h54.8V34.83c18.47-11.61,36.94-23.22,55.4-34.83v158.26h98.5l-9.85,44.61Z"/>
  <path class="cls-1" d="M1247.14,407.56c-41.87,120.98-86.82,157.03-136.07,172.31l-75.11-74.54c41.25-12.84,71.42-46.44,83.73-83.71l-96.65-263.36h116.98l29.55,89.82c4.93,14.05,8,28.12,10.46,45.21h1.24c3.08-17.1,4.93-30.54,9.85-45.21l29.55-89.82h113.28l-86.8,249.31Z"/>
  <path class="cls-1" d="M1543.21,435.06l-115.75-130.15h-.62v130.15h-56.03V0h56.03v290.25h.62l118.2-131.99h66.5l-121.9,136.87,125.58,139.93h-72.64Z"/>
  <path class="cls-1" d="M1837.43,450.94c-14.78-3.06-32.63-12.84-42.48-31.16-12.31,15.28-36.33,26.27-71.41,26.27-44.95,0-95.43-30.54-95.43-97.14,0-48.28,36.33-84.94,97.88-91.05l48.65-4.88v-3.06c0-9.78-12.93-14.66-35.72-14.66-26.46,0-58.48,9.16-78.8,21.39l-19.7-84.94c20.94-12.82,64.03-24.43,103.43-24.43,83.12,0,140.38,32.98,140.38,100.2v74.54c0,37.88,12.31,56.22,36.33,67.83l-83.12,61.1ZM1774.65,318.35l-19.09,1.83c-14.15,1.23-21.55,14.05-21.55,27.5,0,10.38,6.77,19.55,17.87,19.55,12.93,0,22.78-11,22.78-24.43v-24.45Z"/>
</svg>